<svg width="470" height="470" viewBox="0 0 470 470" fill="none" xmlns="http://www.w3.org/2000/svg">
<path d="M6.99999 343V177V54C6.99999 33.2 27 23.3333 37 21C171 20.6667 439 19.6 439 18C463.8 26.8 465.333 39.6667 463 45V349C459.8 373.8 445.667 380 439 380C396.018 380.108 339.186 380.229 282 380.318V447H189V380.426C106.656 380.483 41.2033 380.398 42 380C13.2 381.6 6.66666 356 6.99999 343Z" fill="white"/>
<path d="M432.5 12.5H37.5C16.822 12.5 0 29.323 0 50V350C0 370.677 16.822 387.5 37.5 387.5H182.5V442.5H130C125.858 442.5 122.5 445.858 122.5 450C122.5 454.142 125.858 457.5 130 457.5H340C344.142 457.5 347.5 454.142 347.5 450C347.5 445.858 344.142 442.5 340 442.5H287.5V387.5H432.5C453.178 387.5 470 370.677 470 350V50C470 29.323 453.178 12.5 432.5 12.5ZM272.5 442.5H197.5V387.5H272.5V442.5ZM455 350C455 362.406 444.907 372.5 432.5 372.5H37.5C25.093 372.5 15 362.406 15 350V327.5H455V350ZM455 312.5H15V50C15 37.594 25.093 27.5 37.5 27.5H432.5C444.907 27.5 455 37.594 455 50V312.5Z" fill="black"/>
<path d="M432.5 42.5H37.5C33.358 42.5 30 45.858 30 50V290C30 294.142 33.358 297.5 37.5 297.5H362.5C366.642 297.5 370 294.142 370 290C370 285.858 366.642 282.5 362.5 282.5H45V57.5H425V282.5H392.5C388.358 282.5 385 285.858 385 290C385 294.142 388.358 297.5 392.5 297.5H432.5C436.642 297.5 440 294.142 440 290V50C440 45.858 436.642 42.5 432.5 42.5Z" fill="black"/>
</svg>
