<svg width="424" height="424" viewBox="0 0 424 424" fill="none" xmlns="http://www.w3.org/2000/svg">
<path d="M10 139L80 30H348L414 139L209 393L10 139Z" fill="white"/>
<path d="M423.901 142.526C423.951 142.236 423.979 141.953 423.993 141.656C424.007 141.31 424 140.978 423.972 140.631C423.943 140.334 423.901 140.052 423.83 139.762C423.753 139.423 423.647 139.097 423.519 138.772C423.456 138.603 423.442 138.426 423.364 138.263C423.307 138.143 423.208 138.051 423.145 137.931C423.081 137.811 423.053 137.684 422.982 137.564L352.299 24.4705C351.974 23.9546 351.592 23.488 351.161 23.0781C351.154 23.071 351.147 23.071 351.14 23.064C350.532 22.4914 349.811 22.0815 349.041 21.7563C348.942 21.7139 348.878 21.6291 348.772 21.5867C348.694 21.5584 348.609 21.5725 348.532 21.5513C347.818 21.311 347.083 21.1484 346.312 21.1484H77.7161C76.9528 21.1484 76.2247 21.311 75.525 21.5443C75.4472 21.5655 75.3695 21.5513 75.2988 21.5796C75.1928 21.6149 75.1291 21.6998 75.0302 21.7422C74.2951 22.0461 73.6024 22.4419 73.0016 22.9791C72.9662 23.0145 72.9168 23.0357 72.8814 23.064C72.4432 23.4739 72.0544 23.9475 71.7293 24.4635L1.04612 137.557C0.975432 137.67 0.947159 137.804 0.883544 137.924C0.819929 138.044 0.720973 138.136 0.664426 138.256C0.586675 138.419 0.572538 138.596 0.501855 138.765C0.374625 139.09 0.2686 139.415 0.190849 139.755C0.127234 140.045 0.0777558 140.334 0.0494825 140.631C4.32747e-06 140.978 -0.00706399 141.317 0.00707264 141.656C0.0212093 141.953 0.0494825 142.236 0.0989608 142.526C0.155507 142.865 0.247395 143.197 0.360488 143.529C0.452377 143.805 0.551333 144.074 0.678563 144.342C0.742178 144.469 0.763382 144.611 0.834066 144.738C0.947159 144.943 1.1168 145.098 1.24403 145.289C1.34298 145.438 1.39953 145.6 1.51969 145.742L206.423 400.102C206.437 400.123 206.451 400.137 206.466 400.152L206.501 400.201C206.522 400.229 206.557 400.236 206.579 400.265C207.158 400.964 207.879 401.494 208.664 401.919C208.876 402.032 209.074 402.131 209.293 402.223C210.148 402.583 211.053 402.837 212 402.837C212.806 402.837 213.619 402.696 214.424 402.406C214.545 402.364 214.622 402.265 214.743 402.215C215.103 402.067 215.386 401.827 215.711 401.622C216.248 401.282 216.75 400.929 217.167 400.47C217.266 400.364 217.414 400.314 217.506 400.201L422.487 145.742C422.6 145.6 422.657 145.431 422.763 145.289C422.897 145.098 423.06 144.943 423.173 144.738C423.244 144.611 423.265 144.469 423.328 144.342C423.456 144.074 423.555 143.812 423.647 143.529C423.746 143.197 423.844 142.872 423.901 142.526ZM226.858 35.2921H336.127L301.775 127.498L226.858 35.2921ZM289.038 134.249H134.969L212 39.4412L289.038 134.249ZM121.731 128.113L87.8097 35.2921H197.149L121.731 128.113ZM293.992 148.385L210.763 371.786L129.131 148.385H293.992ZM347.91 44.1487L404.223 134.256H314.342L347.91 44.1487ZM76.0268 44.2406L108.916 134.249H19.7772L76.0268 44.2406ZM114.083 148.385L190.696 358.06L21.7916 148.385H114.083ZM228.943 363.474L309.076 148.385H402.208L228.943 363.474Z" fill="black"/>
</svg>
