<svg width="512" height="512" viewBox="0 0 512 512" fill="none" xmlns="http://www.w3.org/2000/svg">
<path d="M295 97C399.8 86.6 420.667 157.333 418 194C428.667 202.667 450.8 222.8 454 234C458 248 446 271 413 291C380 311 164 110 295 97Z" fill="white"/>
<path d="M132 150C183.2 54 259.333 78 291 102L379 112L441 283C444.333 302 451.4 340.4 453 342C460.2 385.2 430.667 401.333 415 404C397 410.667 360.4 423.8 358 423C320 494 254 453 256 454C152.449 517.724 114.329 389.118 117.951 389.981C6.02267 347.973 82.9999 256 82 256C41 176 131 149 132 150Z" fill="white"/>
<path d="M374.753 340.717C369.256 336.87 362.409 335.875 355.16 334.821C350.404 334.129 345.487 333.414 341.618 331.887C341.44 331.816 341.142 331.699 340.749 330.788C339.011 326.76 340.017 317.932 343.088 310.254C345.954 303.089 353.746 284.762 361.281 267.039C367.061 253.443 372.521 240.601 375.804 232.697C379.066 224.845 385.767 204.632 377.568 186.565C373.085 176.686 364.819 169.477 353.663 165.717C332.98 158.741 320.767 164.531 313.47 167.99C312.241 168.572 310.636 169.333 309.723 169.626C309.048 169.056 307.991 167.923 307.178 167.051C302.768 162.323 295.387 154.412 280.577 154.177C265.589 153.964 255.012 162.816 247.286 169.296C245.143 171.095 242.251 173.519 240.914 174.162C239.266 173.986 235.029 171.83 231.901 170.238C225.39 166.924 217.286 162.8 206.763 160.602C182.02 155.424 157.77 176.208 148.625 199.285C147.43 202.302 146.434 204.995 145.293 208.291C143.487 213.51 146.254 219.205 151.473 221.012C156.694 222.819 162.387 220.051 164.194 214.832C165.234 211.827 166.139 209.38 167.22 206.651C173.207 191.539 188.88 177.298 202.673 180.179C210.59 181.833 217.094 185.142 222.832 188.062C230.377 191.903 237.503 195.529 245.405 193.686C250.845 192.418 255.361 188.629 260.142 184.618C266.332 179.424 272.737 174.013 280.261 174.175C286.566 174.275 288.949 176.829 292.555 180.695C295.859 184.236 300.384 189.086 307.875 189.681C313.466 190.128 318.02 187.966 322.037 186.064C328.04 183.219 334.246 180.275 347.277 184.669C353.212 186.669 357.163 189.992 359.358 194.829C363.408 203.753 360.969 216.279 357.337 225.024C354.086 232.852 348.642 245.656 342.878 259.212C335.302 277.033 327.467 295.46 324.521 302.825C320.425 313.067 317.713 327.871 322.387 338.708C324.797 344.297 328.909 348.37 334.277 350.489C340.309 352.87 346.671 353.795 352.285 354.611C356.034 355.156 361.092 355.892 362.99 356.92C363.756 357.952 364.732 360.615 364.298 362.052C364.075 362.793 362.488 363.426 361.079 363.773C348.076 366.968 315.402 366.442 303.01 344.064C302.984 344.016 302.957 343.969 302.93 343.921C294.331 328.977 302.025 313.273 305.723 305.726C305.96 305.242 306.18 304.793 306.378 304.38C307.525 301.998 334.514 245.928 338.022 237.057C342.113 226.708 337.259 215.512 326.48 210.437C315.284 205.164 302.854 209.155 296.92 219.925C292.356 228.206 282.488 248.343 272.04 269.661C261.648 290.864 247.416 319.902 244.816 323.662C239.169 331.686 237.265 331.499 233.827 330.369C232.528 329.943 231.713 329.259 231.184 328.153C230.203 326.101 230.353 322.934 231.584 319.681C233.604 314.342 240.361 297.237 246.897 280.696C253.077 265.052 258.915 250.276 260.589 245.85C264.634 235.156 258.851 223.188 247.423 218.604C237.127 214.473 223.026 217.151 216.391 232.786C211.933 243.288 197.173 280.688 186.396 307.997C180.66 322.531 175.707 335.084 174.9 336.996C168.124 353.057 160.463 356.727 144.54 351.546C133.229 347.864 123.821 341.081 131.497 316.591C132.243 314.212 133.544 310.041 135.053 305.203C136.694 299.946 138.58 293.898 140.265 288.511C141.914 283.24 138.977 277.63 133.706 275.982C128.436 274.335 122.825 277.27 121.177 282.541C119.491 287.933 117.603 293.985 115.961 299.248C114.455 304.076 113.157 308.237 112.413 310.61C99.666 351.28 123.192 365.63 138.351 370.564C164.079 378.938 182.576 370.258 193.329 344.77C194.184 342.741 198.119 332.777 205.001 315.339C215.739 288.131 230.444 250.869 234.802 240.601C236.468 236.674 238.25 236.833 238.835 236.884C240.511 237.035 241.792 238.286 241.883 238.775C240.261 243.064 234.449 257.774 228.296 273.347C221.735 289.956 214.95 307.128 212.878 312.604C209.66 321.108 209.753 329.693 213.139 336.778C216.008 342.781 221.138 347.254 227.586 349.372C246.748 355.663 257.227 340.778 261.172 335.174C264.241 330.813 272.718 313.724 289.999 278.464C299.884 258.295 310.105 237.439 314.437 229.578C315.225 228.15 315.883 228.078 316.594 228.148C318.027 228.273 319.151 229.233 319.421 229.708C316.736 236.496 295.565 280.738 288.358 295.705L287.763 296.927C283.372 305.889 271.713 329.682 285.553 353.824C298.783 377.638 325.488 385.292 347.138 385.292C354.105 385.291 360.551 384.498 365.851 383.196C375.742 380.764 382.358 374.325 384.003 365.53C385.876 355.514 380.66 344.852 374.753 340.717Z" fill="black"/>
<path d="M145.856 237.764C140.598 236.077 134.965 238.97 133.277 244.229L133.075 244.862C131.406 250.127 134.32 255.748 139.585 257.417C140.59 257.737 141.609 257.888 142.61 257.888C146.853 257.888 150.79 255.167 152.139 250.906L152.32 250.342C154.008 245.084 151.114 239.452 145.856 237.764Z" fill="black"/>
<path d="M442.591 368.245C437.793 365.508 431.686 367.183 428.952 371.982L428.835 372.184C426.062 376.96 427.685 383.081 432.461 385.853C434.041 386.77 435.768 387.207 437.473 387.207C440.92 387.207 444.274 385.421 446.131 382.228L446.328 381.885C449.063 377.087 447.389 370.979 442.591 368.245Z" fill="black"/>
<path d="M463.082 242.839C463.082 218.151 448.14 195.85 425.918 186.143C425.567 129.125 379.074 82.845 321.975 82.845C311.35 82.845 300.914 84.435 290.882 87.58C272.688 76.181 251.807 70.18 230.174 70.18C183.968 70.18 142.248 98.17 124.517 140.426C87.131 147.623 59.647 180.428 59.647 219.114C59.647 231.853 62.656 244.299 68.405 255.54C54.127 271.428 46.069 292.212 46.069 313.702C46.069 334.627 53.611 354.848 67.304 370.64C79.064 384.202 94.679 393.757 111.904 398.065C114.178 419.031 123.557 438.435 138.788 453.377C155.987 470.252 178.731 479.545 202.831 479.545C220.973 479.545 238.208 474.357 253.138 464.469C265.234 473.061 279.725 477.721 294.712 477.721C324.303 477.721 350.734 459.441 361.485 432.415C381.321 431.966 400.327 425.761 416.585 414.406C421.113 411.243 422.22 405.009 419.057 400.481C415.894 395.953 409.659 394.846 405.133 398.009C391.616 407.451 375.72 412.441 359.163 412.441C357.795 412.441 356.348 412.402 354.862 412.325C350.183 412.077 345.948 415.132 344.702 419.657C338.532 442.068 317.976 457.72 294.713 457.72C281.919 457.72 269.627 453.014 260.104 444.47C256.475 441.215 251.028 441.051 247.211 444.079C234.456 454.197 219.11 459.546 202.831 459.546C164.237 459.546 132.183 428.154 131.378 389.569C131.276 384.705 127.69 380.62 122.88 379.891C90.492 374.977 66.068 346.522 66.068 313.703C66.068 295.079 73.931 277.141 87.64 264.492C91.216 261.193 91.898 255.8 89.257 251.714C82.97 241.987 79.647 230.715 79.647 219.115C79.647 188.527 102.532 162.84 132.88 159.363C136.662 158.93 139.87 156.387 141.155 152.804C154.591 115.347 190.365 90.18 230.175 90.18C249.446 90.18 267.988 95.946 283.796 106.852C286.473 108.698 289.882 109.13 292.935 108.004C302.22 104.58 311.99 102.845 321.976 102.845C368.263 102.845 405.921 140.503 405.921 186.79C405.921 188.585 405.856 190.473 405.729 192.402C405.42 197.088 408.412 201.356 412.921 202.665C430.679 207.817 443.082 224.337 443.082 242.839C443.082 255.164 437.672 266.811 428.238 274.791C424.375 278.06 423.562 283.698 426.344 287.925C434.984 301.048 439.551 316.307 439.551 332.053C439.551 334.048 439.478 336.063 439.332 338.043C438.927 343.551 443.064 348.344 448.572 348.749C454.087 349.136 458.874 345.016 459.278 339.508C459.459 337.043 459.551 334.534 459.551 332.053C459.551 315.175 455.348 298.742 447.332 284.056C457.425 272.783 463.082 258.169 463.082 242.839Z" fill="black"/>
<path d="M502 213.168H501.866C496.343 213.168 491.866 217.646 491.866 223.168C491.866 228.69 496.343 233.168 501.866 233.168H502C507.523 233.168 512 228.69 512 223.168C512 217.646 507.523 213.168 502 213.168Z" fill="black"/>
<path d="M157.794 20.156H157.66C152.137 20.156 147.66 24.634 147.66 30.156C147.66 35.678 152.137 40.156 157.66 40.156H157.794C163.317 40.156 167.794 35.678 167.794 30.156C167.794 24.634 163.317 20.156 157.794 20.156Z" fill="black"/>
<path d="M91.915 404.037H91.781C86.258 404.037 81.781 408.515 81.781 414.037C81.781 419.559 86.258 424.037 91.781 424.037H91.915C97.438 424.037 101.915 419.559 101.915 414.037C101.915 408.515 97.438 404.037 91.915 404.037Z" fill="black"/>
<path d="M251.218 479.633H251.084C245.561 479.633 241.084 484.111 241.084 489.633C241.084 495.155 245.561 499.633 251.084 499.633H251.218C256.741 499.633 261.218 495.155 261.218 489.633C261.218 484.111 256.741 479.633 251.218 479.633Z" fill="black"/>
<path d="M479.102 278.021H478.968C473.445 278.021 468.968 282.499 468.968 288.021C468.968 293.543 473.445 298.021 478.968 298.021H479.102C484.625 298.021 489.102 293.543 489.102 288.021C489.102 282.499 484.625 278.021 479.102 278.021Z" fill="black"/>
<path d="M112.525 104.641H112.391C106.868 104.641 102.391 109.119 102.391 114.641C102.391 120.163 106.868 124.641 112.391 124.641H112.525C118.048 124.641 122.525 120.163 122.525 114.641C122.525 109.119 118.048 104.641 112.525 104.641Z" fill="black"/>
<path d="M28.229 219.603C12.664 219.603 0 232.267 0 247.832C0 263.397 12.664 276.061 28.229 276.061C43.794 276.061 56.458 263.398 56.458 247.832C56.458 232.266 43.794 219.603 28.229 219.603ZM28.229 256.061C23.691 256.061 20 252.37 20 247.832C20 243.294 23.691 239.603 28.229 239.603C32.767 239.603 36.458 243.294 36.458 247.832C36.458 252.37 32.767 256.061 28.229 256.061Z" fill="black"/>
<path d="M300.53 9.578C283.988 9.578 270.53 23.036 270.53 39.578C270.53 56.12 283.988 69.578 300.53 69.578C317.072 69.578 330.53 56.12 330.53 39.578C330.53 23.036 317.072 9.578 300.53 9.578ZM300.53 49.578C295.016 49.578 290.53 45.092 290.53 39.578C290.53 34.064 295.016 29.578 300.53 29.578C306.044 29.578 310.53 34.064 310.53 39.578C310.53 45.092 306.044 49.578 300.53 49.578Z" fill="black"/>
<path d="M397.397 442.422C380.855 442.422 367.397 455.88 367.397 472.422C367.397 488.964 380.855 502.422 397.397 502.422C413.939 502.422 427.397 488.964 427.397 472.422C427.397 455.88 413.939 442.422 397.397 442.422ZM397.397 482.422C391.883 482.422 387.397 477.936 387.397 472.422C387.397 466.908 391.883 462.422 397.397 462.422C402.911 462.422 407.397 466.908 407.397 472.422C407.397 477.936 402.911 482.422 397.397 482.422Z" fill="black"/>
<path d="M466.1 130.193C449.558 130.193 436.1 143.651 436.1 160.193C436.1 176.735 449.558 190.193 466.1 190.193C482.642 190.193 496.1 176.735 496.1 160.193C496.1 143.651 482.642 130.193 466.1 130.193ZM466.1 170.193C460.586 170.193 456.1 165.707 456.1 160.193C456.1 154.679 460.586 150.193 466.1 150.193C471.614 150.193 476.1 154.679 476.1 160.193C476.1 165.707 471.614 170.193 466.1 170.193Z" fill="black"/>
</svg>
