<svg width="512" height="512" viewBox="0 0 512 512" fill="none" xmlns="http://www.w3.org/2000/svg">
<path d="M253 17C185 47.3333 89.8 124.2 253 189C327.333 166.333 431.4 100.2 253 17Z" fill="white"/>
<path d="M134 233L192 202L265 192L328 202L366 233L436 227L467 233V281L500 309V357L467 376C466.333 395.333 465.4 434.4 467 436C434 423 250 487 250 489C178.8 450.6 115 441 92 441L48 424C45.6666 407 36.8 369.8 20 357C3.19998 344.2 9.66665 319.667 15 309L48 289V233H134Z" fill="white"/>
<path d="M481.999 273.586V226.006C481.999 217.722 475.283 211.006 466.999 211.006C436.011 211.006 407.121 213.621 379.826 218.961C363.915 203.596 344.518 192.448 323.513 186.355C346.417 167.078 360.999 138.215 360.999 106.006C360.999 47.557 313.896 0.00601196 255.999 0.00601196C198.102 0.00601196 150.999 47.557 150.999 106.006C150.999 138.215 165.581 167.078 188.486 186.354C167.481 192.448 148.084 203.596 132.173 218.96C104.878 213.621 75.988 211.005 45 211.005C36.716 211.005 30 217.721 30 226.005V273.585C12.541 279.777 0 296.45 0 316.005V346.005C0 365.56 12.541 382.233 30 388.425V436.005C30 444.289 36.716 451.005 45 451.005C123.429 451.005 187.832 469.588 247.68 509.486C252.695 512.828 259.301 512.836 264.321 509.486C324.169 469.588 388.571 451.005 467.001 451.005C475.285 451.005 482.001 444.289 482.001 436.005V388.425C499.46 382.233 512.001 365.56 512.001 346.005V316.005C511.999 296.451 499.458 279.778 481.999 273.586ZM180.999 106.006C180.999 64.099 214.644 30.006 255.999 30.006C297.354 30.006 330.999 64.099 330.999 106.006C330.999 147.361 297.354 181.006 255.999 181.006C214.644 181.006 180.999 147.361 180.999 106.006ZM44.999 361.006C36.728 361.006 29.999 354.277 29.999 346.006V316.006C29.999 307.735 36.728 301.006 44.999 301.006C53.27 301.006 59.999 307.735 59.999 316.006V346.006C59.999 354.277 53.27 361.006 44.999 361.006ZM240.999 470.091C186.546 438.95 128.113 423.211 59.999 421.222V388.426C77.458 382.234 89.999 365.561 89.999 346.006V316.006C89.999 296.451 77.458 279.778 59.999 273.586V241.218C130.48 243.241 187.133 259.838 240.999 294.134V470.091ZM255.999 268.145C228.313 250.676 199.495 237.375 168.731 228.028C185.635 217.042 205.534 211.006 225.999 211.006H285.999C306.464 211.006 326.363 217.042 343.267 228.028C312.503 237.375 283.684 250.676 255.999 268.145ZM451.999 421.222C383.886 423.211 325.451 438.954 270.999 470.093V294.146C324.866 259.847 381.515 243.24 451.999 241.218V273.586C434.54 279.778 421.999 296.451 421.999 316.006V346.006C421.999 365.561 434.54 382.234 451.999 388.426V421.222ZM481.999 346.006C481.999 354.277 475.27 361.006 466.999 361.006C458.728 361.006 451.999 354.277 451.999 346.006V316.006C451.999 307.735 458.728 301.006 466.999 301.006C475.27 301.006 481.999 307.735 481.999 316.006V346.006Z" fill="black"/>
</svg>
