<svg width="25" height="26" viewBox="0 0 25 26" fill="none" xmlns="http://www.w3.org/2000/svg">
<g clip-path="url(#clip0)">
<path d="M14.2378 12.9999C14.2378 14.0942 13.3507 14.9813 12.2564 14.9813C11.1621 14.9813 10.2751 14.0942 10.2751 12.9999C10.2751 11.9056 11.1621 11.0186 12.2564 11.0186C13.3507 11.0186 14.2378 11.9056 14.2378 12.9999Z" fill="white"/>
<path d="M17.3811 9.12308C17.2757 8.83765 17.1077 8.57929 16.8893 8.36722C16.6772 8.14887 16.4191 7.98082 16.1335 7.87549C15.9018 7.78552 15.5539 7.67844 14.9129 7.64927C14.2196 7.61765 14.0117 7.61084 12.2565 7.61084C10.5011 7.61084 10.2932 7.61748 9.60008 7.6491C8.95916 7.67844 8.61102 7.78552 8.37956 7.87549C8.09395 7.98082 7.83559 8.14887 7.6237 8.36722C7.40534 8.57929 7.2373 8.83747 7.13179 9.12308C7.04183 9.35472 6.93474 9.70286 6.90557 10.3438C6.87395 11.0369 6.86714 11.2448 6.86714 13.0002C6.86714 14.7554 6.87395 14.9633 6.90557 15.6566C6.93474 16.2976 7.04183 16.6455 7.13179 16.8772C7.2373 17.1628 7.40517 17.4209 7.62353 17.633C7.83559 17.8514 8.09378 18.0194 8.37939 18.1248C8.61102 18.2149 8.95916 18.322 9.60008 18.3511C10.2932 18.3828 10.5009 18.3894 12.2563 18.3894C14.0119 18.3894 14.2198 18.3828 14.9128 18.3511C15.5537 18.322 15.9018 18.2149 16.1335 18.1248C16.7068 17.9036 17.1599 17.4505 17.3811 16.8772C17.471 16.6455 17.5781 16.2976 17.6074 15.6566C17.6391 14.9633 17.6457 14.7554 17.6457 13.0002C17.6457 11.2448 17.6391 11.0369 17.6074 10.3438C17.5783 9.70286 17.4712 9.35472 17.3811 9.12308ZM12.2565 16.3756C10.3921 16.3756 8.88073 14.8644 8.88073 13C8.88073 11.1356 10.3921 9.62443 12.2565 9.62443C14.1207 9.62443 15.6321 11.1356 15.6321 13C15.6321 14.8644 14.1207 16.3756 12.2565 16.3756ZM15.7656 10.2798C15.3299 10.2798 14.9767 9.92663 14.9767 9.49097C14.9767 9.05531 15.3299 8.70209 15.7656 8.70209C16.2012 8.70209 16.5544 9.05531 16.5544 9.49097C16.5543 9.92663 16.2012 10.2798 15.7656 10.2798Z" fill="white"/>
<path d="M12.2564 0.794922C5.51674 0.794922 0.0512848 6.26037 0.0512848 13.0001C0.0512848 19.7397 5.51674 25.2052 12.2564 25.2052C18.9961 25.2052 24.4615 19.7397 24.4615 13.0001C24.4615 6.26037 18.9961 0.794922 12.2564 0.794922ZM19.2226 15.8895C19.1887 16.6356 19.07 17.1449 18.8968 17.5908C18.5327 18.5322 17.7885 19.2764 16.8471 19.6405C16.4015 19.8137 15.8919 19.9321 15.146 19.9662C14.3987 20.0003 14.1599 20.0085 12.2566 20.0085C10.3531 20.0085 10.1145 20.0003 9.36697 19.9662C8.6211 19.9321 8.11156 19.8137 7.66589 19.6405C7.19807 19.4645 6.77457 19.1887 6.42445 18.832C6.06799 18.4821 5.79218 18.0584 5.61619 17.5908C5.44299 17.1451 5.32436 16.6356 5.29046 15.8897C5.25601 15.1421 5.248 14.9034 5.248 13.0001C5.248 11.0967 5.25601 10.858 5.29028 10.1106C5.32417 9.36455 5.44262 8.85519 5.61581 8.40935C5.79181 7.94171 6.06781 7.51802 6.42445 7.16809C6.77439 6.81145 7.19807 6.53563 7.66571 6.35964C8.11156 6.18644 8.62091 6.06799 9.36697 6.03391C10.1143 5.99983 10.3531 5.99164 12.2564 5.99164C14.1597 5.99164 14.3985 5.99983 15.1459 6.0341C15.8919 6.06799 16.4013 6.18644 16.8471 6.35945C17.3148 6.53544 17.7384 6.81145 18.0886 7.16809C18.445 7.51821 18.721 7.94171 18.8968 8.40935C19.0702 8.85519 19.1887 9.36455 19.2227 10.1106C19.2568 10.858 19.2648 11.0967 19.2648 13.0001C19.2648 14.9034 19.2568 15.1421 19.2226 15.8895Z" fill="white"/>
</g>
<defs>
<clipPath id="clip0">
<rect x="0.0512848" y="0.794922" width="24.4103" height="24.4103" fill="white"/>
</clipPath>
</defs>
</svg>
