<svg width="25" height="26" viewBox="0 0 25 26" fill="none" xmlns="http://www.w3.org/2000/svg">
<g clip-path="url(#clip0)">
<path d="M12.253 25.2049C18.9936 25.2049 24.458 19.7405 24.458 12.9999C24.458 6.25928 18.9936 0.794922 12.253 0.794922C5.51235 0.794922 0.0479965 6.25928 0.0479965 12.9999C0.0479965 19.7405 5.51235 25.2049 12.253 25.2049Z" fill="white"/>
<path d="M24.4103 13.0001C24.4103 12.7027 24.3991 12.408 24.3782 12.1159L19.3198 7.05762L5.0905 12.6548L10.5347 18.099L10.6061 18.3561L10.6986 18.2629L10.6989 18.2633L10.6061 18.3561L16.6284 24.3784C21.1825 22.6068 24.4103 18.1806 24.4103 13.0001Z" fill="white"/>
<path d="M10.243 15.2971L16.9331 20.3421L20.3101 5.94385L3.05128 12.7245L8.30294 14.4619L17.8873 8.04068L10.243 15.2971Z" fill="black"/>
<path d="M8.34335 14.4597L9.7743 19.6268L10.2735 15.2945L17.8786 8.0415L8.34335 14.4597Z" fill="white"/>
<path d="M12.3958 16.9298L9.72596 19.6271L10.2266 15.2886L12.3958 16.9298Z" fill="black"/>
</g>
<defs>
<clipPath id="clip0">
<rect y="0.794922" width="24.4103" height="24.4103" fill="white"/>
</clipPath>
</defs>
</svg>
