<svg width="26" height="26" viewBox="0 0 26 26" fill="none" xmlns="http://www.w3.org/2000/svg">
<path d="M12.8744 0.458008C5.93728 0.458008 0.311707 6.00884 0.311707 12.8538C0.311707 19.6988 5.93728 25.2496 12.8744 25.2496C19.8115 25.2496 25.4371 19.6988 25.4371 12.8538C25.4371 6.00884 19.8115 0.458008 12.8744 0.458008ZM18.6104 10.1229C18.616 10.2449 18.6186 10.3675 18.6186 10.4906C18.6186 14.2503 15.7183 18.5857 10.4144 18.5858H10.4146H10.4144C8.78601 18.5858 7.27069 18.1149 5.99459 17.3078C6.22022 17.3341 6.44986 17.3471 6.68238 17.3471C8.03343 17.3471 9.27674 16.8924 10.2638 16.1292C9.00147 16.1062 7.9372 15.2836 7.56992 14.153C7.7457 14.1863 7.92646 14.2045 8.11183 14.2045C8.37502 14.2045 8.62997 14.1695 8.87227 14.1042C7.55286 13.8436 6.55893 12.693 6.55893 11.3153C6.55893 11.3024 6.55893 11.2909 6.55932 11.279C6.94788 11.4922 7.39222 11.6204 7.86531 11.6348C7.09107 11.125 6.58213 10.2536 6.58213 9.26648C6.58213 8.7452 6.72494 8.25683 6.97261 7.83636C8.39457 9.55796 10.5197 10.6902 12.9162 10.8091C12.8667 10.6007 12.8412 10.3836 12.8412 10.1604C12.8412 8.58972 14.1327 7.31545 15.725 7.31545C16.5545 7.31545 17.3036 7.6614 17.8298 8.21446C18.4867 8.0866 19.1036 7.84979 19.6609 7.52389C19.4452 8.18798 18.9882 8.7452 18.3928 9.09758C18.9761 9.02873 19.532 8.87609 20.0487 8.64949C19.6628 9.22014 19.1734 9.72138 18.6104 10.1229Z" fill="white"/>
</svg>
