<svg width="186" height="188" viewBox="0 0 186 188" fill="none" xmlns="http://www.w3.org/2000/svg">
<g clip-path="url(#clip0)">
<path d="M149.974 60.1401V174.86C149.974 182.172 150.057 188.097 158.878 188.097H39.0928C30.2718 188.097 27.5346 184.806 27.5346 177.495V60.1401H149.974Z" fill="#FDFDFD"/>
<path d="M137.989 76.7744H40.1942V85.4115H137.989V76.7744Z" fill="#E34B87"/>
<path d="M91.4655 85.4115H137.04V76.7744H117.508L91.4655 85.4115Z" fill="#D94881"/>
<path d="M137.989 127.638H95.5799V134.036H137.989V127.638Z" fill="#8C8C8C"/>
<path d="M90.516 110.043H40.1942V134.035H90.516V110.043Z" fill="#4EB5E6"/>
<path d="M137.989 110.043H95.5799V116.761H137.989V110.043Z" fill="#8C8C8C"/>
<path d="M137.989 144.272H40.1942V150.67H137.989V144.272Z" fill="#8C8C8C"/>
<path d="M137.989 93.4092H40.1942V99.807H137.989V93.4092Z" fill="#8C8C8C"/>
<path d="M137.989 157.388H40.1942V163.786H137.989V157.388Z" fill="#8C8C8C"/>
<path d="M137.989 171.783H40.1942V178.181H137.989V171.783Z" fill="#8C8C8C"/>
<path d="M158.313 188C163.02 188 166.832 185.775 166.832 183.027V81.084H149.794V183.027C149.794 185.775 153.607 188 158.313 188Z" fill="#EAEAEA"/>
</g>
<defs>
<clipPath id="clip0">
<rect width="186" height="188" fill="white"/>
</clipPath>
</defs>
</svg>